<svg t="1726391715476" class="icon" viewBox="0 0 1024 1024" version="1.1" xmlns="http://www.w3.org/2000/svg" p-id="4131" width="200" height="200"><path d="M512 512m-475.428571 0a475.428571 475.428571 0 1 0 950.857142 0 475.428571 475.428571 0 1 0-950.857142 0Z" fill="#EAFCFF" p-id="4132"></path><path d="M672.914286 530.285714H804.571429v3.657143h-131.657143z" fill="#B8ABF3" p-id="4133"></path><path d="M672.914286 526.628571H804.571429v3.657143h-131.657143z" fill="#B9ACF3" p-id="4134"></path><path d="M672.914286 519.314286H804.571429v3.657143h-131.657143z" fill="#BAADF3" p-id="4135"></path><path d="M672.914286 515.657143H804.571429v3.657143h-131.657143z" fill="#BBAEF3" p-id="4136"></path><path d="M672.914286 512H804.571429v3.657143h-131.657143z" fill="#BCAFF3" p-id="4137"></path><path d="M672.914286 504.685714H804.571429v3.657143h-131.657143z" fill="#BDB0F3" p-id="4138"></path><path d="M672.914286 501.028571H804.571429v3.657143h-131.657143z" fill="#BEB1F3" p-id="4139"></path><path d="M672.914286 493.714286H804.571429v3.657143h-131.657143z" fill="#BFB2F3" p-id="4140"></path><path d="M672.914286 490.057143H804.571429v3.657143h-131.657143z" fill="#C0B3F3" p-id="4141"></path><path d="M672.914286 482.742857H804.571429v3.657143h-131.657143z" fill="#C1B4F3" p-id="4142"></path><path d="M672.914286 479.085714H804.571429v3.657143h-131.657143z" fill="#C2B4F3" p-id="4143"></path><path d="M672.914286 475.428571H804.571429v3.657143h-131.657143z" fill="#C3B5F3" p-id="4144"></path><path d="M672.914286 468.114286H804.571429v3.657143h-131.657143z" fill="#C4B6F3" p-id="4145"></path><path d="M672.914286 464.457143H804.571429v3.657143h-131.657143z" fill="#C5B7F3" p-id="4146"></path><path d="M672.914286 457.142857H804.571429v3.657143h-131.657143z" fill="#C6B8F3" p-id="4147"></path><path d="M672.914286 453.485714H804.571429v3.657143h-131.657143z" fill="#C7B9F3" p-id="4148"></path><path d="M672.914286 446.171429H804.571429v3.657142h-131.657143z" fill="#C8BAF3" p-id="4149"></path><path d="M672.914286 442.514286H804.571429v3.657143h-131.657143z" fill="#C9BBF3" p-id="4150"></path><path d="M672.914286 438.857143H804.571429v3.657143h-131.657143z" fill="#CABCF3" p-id="4151"></path><path d="M672.914286 431.542857H804.571429v3.657143h-131.657143z" fill="#CBBDF3" p-id="4152"></path><path d="M672.914286 427.885714H804.571429v3.657143h-131.657143z" fill="#CDBEF4" p-id="4153"></path><path d="M672.914286 420.571429H804.571429v3.657142h-131.657143z" fill="#CEBFF4" p-id="4154"></path><path d="M672.914286 416.914286H804.571429v3.657143h-131.657143z" fill="#CFC0F4" p-id="4155"></path><path d="M672.914286 409.6H804.571429v3.657143h-131.657143z" fill="#D0C1F4" p-id="4156"></path><path d="M672.914286 405.942857H804.571429v3.657143h-131.657143z" fill="#D1C2F4" p-id="4157"></path><path d="M672.914286 402.285714H804.571429v3.657143h-131.657143z" fill="#D2C3F4" p-id="4158"></path><path d="M672.914286 394.971429H804.571429v3.657142h-131.657143z" fill="#D3C4F4" p-id="4159"></path><path d="M672.914286 391.314286H804.571429v3.657143h-131.657143z" fill="#D4C5F4" p-id="4160"></path><path d="M672.914286 384H804.571429v3.657143h-131.657143z" fill="#D5C6F4" p-id="4161"></path><path d="M672.914286 380.342857H804.571429v3.657143h-131.657143z" fill="#D6C7F4" p-id="4162"></path><path d="M672.914286 373.028571H804.571429v3.657143h-131.657143z" fill="#D7C7F4" p-id="4163"></path><path d="M672.914286 369.371429H804.571429v3.657142h-131.657143z" fill="#D8C8F4" p-id="4164"></path><path d="M672.914286 365.714286H804.571429v3.657143h-131.657143z" fill="#D9C9F4" p-id="4165"></path><path d="M672.914286 358.4H804.571429v3.657143h-131.657143z" fill="#DACAF4" p-id="4166"></path><path d="M672.914286 354.742857H804.571429v3.657143h-131.657143z" fill="#DBCBF4" p-id="4167"></path><path d="M672.914286 347.428571H804.571429v3.657143h-131.657143z" fill="#DCCCF4" p-id="4168"></path><path d="M672.914286 343.771429H804.571429v3.657142h-131.657143z" fill="#DDCDF4" p-id="4169"></path><path d="M672.914286 340.114286H804.571429v3.657143h-131.657143z" fill="#DECEF4" p-id="4170"></path><path d="M672.914286 332.8H804.571429v3.657143h-131.657143z" fill="#DFCFF4" p-id="4171"></path><path d="M672.914286 329.142857H804.571429v3.657143h-131.657143z" fill="#E0D0F4" p-id="4172"></path><path d="M720.457143 438.857143h54.857143v3.657143h-54.857143z" fill="#BD9CE9" p-id="4173"></path><path d="M720.457143 435.2h54.857143v3.657143h-54.857143z" fill="#BC9BE9" p-id="4174"></path><path d="M720.457143 431.542857h54.857143v3.657143h-54.857143z" fill="#BB9BE9" p-id="4175"></path><path d="M720.457143 427.885714h54.857143v3.657143h-54.857143z" fill="#BA9AE9" p-id="4176"></path><path d="M720.457143 424.228571h54.857143v3.657143h-54.857143z" fill="#B99AEA" p-id="4177"></path><path d="M720.457143 420.571429h54.857143v3.657142h-54.857143z" fill="#B899EA" p-id="4178"></path><path d="M720.457143 416.914286h54.857143v3.657143h-54.857143z" fill="#B799EA" p-id="4179"></path><path d="M720.457143 413.257143h54.857143v3.657143h-54.857143z" fill="#B698EA" p-id="4180"></path><path d="M720.457143 409.6h54.857143v3.657143h-54.857143z" fill="#B598EA" p-id="4181"></path><path d="M720.457143 405.942857h54.857143v3.657143h-54.857143z" fill="#B497EA" p-id="4182"></path><path d="M720.457143 402.285714h54.857143v3.657143h-54.857143z" fill="#B397EB" p-id="4183"></path><path d="M720.457143 398.628571h54.857143v3.657143h-54.857143z" fill="#B296EB" p-id="4184"></path><path d="M720.457143 394.971429h54.857143v3.657142h-54.857143z" fill="#B195EB" p-id="4185"></path><path d="M720.457143 391.314286h54.857143v3.657143h-54.857143z" fill="#B095EB" p-id="4186"></path><path d="M720.457143 387.657143h54.857143v3.657143h-54.857143z" fill="#AF94EB" p-id="4187"></path><path d="M720.457143 384h54.857143v3.657143h-54.857143z" fill="#AE94EB" p-id="4188"></path><path d="M720.457143 380.342857h54.857143v3.657143h-54.857143z" fill="#AC93EC" p-id="4189"></path><path d="M720.457143 376.685714h54.857143v3.657143h-54.857143z" fill="#AB93EC" p-id="4190"></path><path d="M720.457143 373.028571h54.857143v3.657143h-54.857143z" fill="#AA92EC" p-id="4191"></path><path d="M720.457143 369.371429h54.857143v3.657142h-54.857143z" fill="#A992EC" p-id="4192"></path><path d="M720.457143 365.714286h54.857143v3.657143h-54.857143z" fill="#A891EC" p-id="4193"></path><path d="M720.457143 362.057143h54.857143v3.657143h-54.857143z" fill="#A790EC" p-id="4194"></path><path d="M720.457143 358.4h54.857143v3.657143h-54.857143z" fill="#A690ED" p-id="4195"></path><path d="M720.457143 354.742857h54.857143v3.657143h-54.857143z" fill="#A58FED" p-id="4196"></path><path d="M720.457143 351.085714h54.857143v3.657143h-54.857143z" fill="#A48FED" p-id="4197"></path><path d="M720.457143 347.428571h54.857143v3.657143h-54.857143z" fill="#A38EED" p-id="4198"></path><path d="M720.457143 347.428571h54.857143v3.657143h-54.857143z" fill="#A28EED" p-id="4199"></path><path d="M720.457143 343.771429h54.857143v3.657142h-54.857143z" fill="#A18DED" p-id="4200"></path><path d="M720.457143 340.114286h54.857143v3.657143h-54.857143z" fill="#A08DEE" p-id="4201"></path><path d="M720.457143 336.457143h54.857143v3.657143h-54.857143z" fill="#9F8CEE" p-id="4202"></path><path d="M720.457143 332.8h54.857143v3.657143h-54.857143z" fill="#9E8CEE" p-id="4203"></path><path d="M720.457143 329.142857h54.857143v3.657143h-54.857143z" fill="#9D8BEE" p-id="4204"></path><path d="M731.428571 435.2s-10.971429-54.857143 25.6-95.085714c0 0 40.228571 18.285714 58.514286 91.428571s-25.6 113.371429-25.6 113.371429l-58.514286-109.714286z" fill="#F493FF" p-id="4205"></path><path d="M709.485714 343.771429c-7.314286 3.657143-7.314286 10.971429 7.314286 10.971428 14.628571-3.657143 21.942857-14.628571 21.942857-14.628571 0-3.657143-18.285714 0-29.257143 3.657143z" fill="#FFFFFF" p-id="4206"></path><path d="M226.742857 537.6h131.657143v3.657143H226.742857z" fill="#B8ABF3" p-id="4207"></path><path d="M226.742857 533.942857h131.657143v3.657143H226.742857z" fill="#B9ACF3" p-id="4208"></path><path d="M226.742857 530.285714h131.657143v3.657143H226.742857z" fill="#BAADF3" p-id="4209"></path><path d="M226.742857 522.971429h131.657143v3.657142H226.742857z" fill="#BBAEF3" p-id="4210"></path><path d="M226.742857 519.314286h131.657143v3.657143H226.742857z" fill="#BCAFF3" p-id="4211"></path><path d="M226.742857 512h131.657143v3.657143H226.742857z" fill="#BDB0F3" p-id="4212"></path><path d="M226.742857 508.342857h131.657143v3.657143H226.742857z" fill="#BEB1F3" p-id="4213"></path><path d="M226.742857 501.028571h131.657143v3.657143H226.742857z" fill="#BFB2F3" p-id="4214"></path><path d="M226.742857 497.371429h131.657143v3.657142H226.742857z" fill="#C0B3F3" p-id="4215"></path><path d="M226.742857 493.714286h131.657143v3.657143H226.742857z" fill="#C1B4F3" p-id="4216"></path><path d="M226.742857 486.4h131.657143v3.657143H226.742857z" fill="#C2B4F3" p-id="4217"></path><path d="M226.742857 482.742857h131.657143v3.657143H226.742857z" fill="#C3B5F3" p-id="4218"></path><path d="M226.742857 475.428571h131.657143v3.657143H226.742857z" fill="#C4B6F3" p-id="4219"></path><path d="M226.742857 471.771429h131.657143v3.657142H226.742857z" fill="#C5B7F3" p-id="4220"></path><path d="M226.742857 468.114286h131.657143v3.657143H226.742857z" fill="#C6B8F3" p-id="4221"></path><path d="M226.742857 460.8h131.657143v3.657143H226.742857z" fill="#C7B9F3" p-id="4222"></path><path d="M226.742857 457.142857h131.657143v3.657143H226.742857z" fill="#C8BAF3" p-id="4223"></path><path d="M226.742857 449.828571h131.657143v3.657143H226.742857z" fill="#C9BBF3" p-id="4224"></path><path d="M226.742857 446.171429h131.657143v3.657142H226.742857z" fill="#CABCF3" p-id="4225"></path><path d="M226.742857 438.857143h131.657143v3.657143H226.742857z" fill="#CBBDF3" p-id="4226"></path><path d="M226.742857 435.2h131.657143v3.657143H226.742857z" fill="#CDBEF4" p-id="4227"></path><path d="M226.742857 431.542857h131.657143v3.657143H226.742857z" fill="#CEBFF4" p-id="4228"></path><path d="M226.742857 424.228571h131.657143v3.657143H226.742857z" fill="#CFC0F4" p-id="4229"></path><path d="M226.742857 420.571429h131.657143v3.657142H226.742857z" fill="#D0C1F4" p-id="4230"></path><path d="M226.742857 413.257143h131.657143v3.657143H226.742857z" fill="#D1C2F4" p-id="4231"></path><path d="M226.742857 409.6h131.657143v3.657143H226.742857z" fill="#D2C3F4" p-id="4232"></path><path d="M226.742857 402.285714h131.657143v3.657143H226.742857z" fill="#D3C4F4" p-id="4233"></path><path d="M226.742857 398.628571h131.657143v3.657143H226.742857z" fill="#D4C5F4" p-id="4234"></path><path d="M226.742857 394.971429h131.657143v3.657142H226.742857z" fill="#D5C6F4" p-id="4235"></path><path d="M226.742857 387.657143h131.657143v3.657143H226.742857z" fill="#D6C7F4" p-id="4236"></path><path d="M226.742857 384h131.657143v3.657143H226.742857z" fill="#D7C7F4" p-id="4237"></path><path d="M226.742857 376.685714h131.657143v3.657143H226.742857z" fill="#D8C8F4" p-id="4238"></path><path d="M226.742857 373.028571h131.657143v3.657143H226.742857z" fill="#D9C9F4" p-id="4239"></path><path d="M226.742857 365.714286h131.657143v3.657143H226.742857z" fill="#DACAF4" p-id="4240"></path><path d="M226.742857 362.057143h131.657143v3.657143H226.742857z" fill="#DBCBF4" p-id="4241"></path><path d="M226.742857 358.4h131.657143v3.657143H226.742857z" fill="#DCCCF4" p-id="4242"></path><path d="M226.742857 351.085714h131.657143v3.657143H226.742857z" fill="#DDCDF4" p-id="4243"></path><path d="M226.742857 347.428571h131.657143v3.657143H226.742857z" fill="#DECEF4" p-id="4244"></path><path d="M226.742857 340.114286h131.657143v3.657143H226.742857z" fill="#DFCFF4" p-id="4245"></path><path d="M226.742857 336.457143h131.657143v3.657143H226.742857z" fill="#E0D0F4" p-id="4246"></path><path d="M256 446.171429h54.857143v3.657142H256z" fill="#BD9CE9" p-id="4247"></path><path d="M256 442.514286h54.857143v3.657143H256z" fill="#BC9BE9" p-id="4248"></path><path d="M256 438.857143h54.857143v3.657143H256z" fill="#BB9BE9" p-id="4249"></path><path d="M256 435.2h54.857143v3.657143H256z" fill="#BA9AE9" p-id="4250"></path><path d="M256 431.542857h54.857143v3.657143H256z" fill="#B99AEA" p-id="4251"></path><path d="M256 427.885714h54.857143v3.657143H256z" fill="#B899EA" p-id="4252"></path><path d="M256 424.228571h54.857143v3.657143H256z" fill="#B799EA" p-id="4253"></path><path d="M256 420.571429h54.857143v3.657142H256z" fill="#B698EA" p-id="4254"></path><path d="M256 416.914286h54.857143v3.657143H256z" fill="#B598EA" p-id="4255"></path><path d="M256 413.257143h54.857143v3.657143H256z" fill="#B497EA" p-id="4256"></path><path d="M256 409.6h54.857143v3.657143H256z" fill="#B397EB" p-id="4257"></path><path d="M256 405.942857h54.857143v3.657143H256z" fill="#B296EB" p-id="4258"></path><path d="M256 402.285714h54.857143v3.657143H256z" fill="#B195EB" p-id="4259"></path><path d="M256 398.628571h54.857143v3.657143H256z" fill="#B095EB" p-id="4260"></path><path d="M256 394.971429h54.857143v3.657142H256z" fill="#AF94EB" p-id="4261"></path><path d="M256 391.314286h54.857143v3.657143H256z" fill="#AE94EB" p-id="4262"></path><path d="M256 387.657143h54.857143v3.657143H256z" fill="#AC93EC" p-id="4263"></path><path d="M256 384h54.857143v3.657143H256z" fill="#AB93EC" p-id="4264"></path><path d="M256 380.342857h54.857143v3.657143H256z" fill="#AA92EC" p-id="4265"></path><path d="M256 380.342857h54.857143v3.657143H256z" fill="#A992EC" p-id="4266"></path><path d="M256 376.685714h54.857143v3.657143H256z" fill="#A891EC" p-id="4267"></path><path d="M256 373.028571h54.857143v3.657143H256z" fill="#A790EC" p-id="4268"></path><path d="M256 369.371429h54.857143v3.657142H256z" fill="#A690ED" p-id="4269"></path><path d="M256 365.714286h54.857143v3.657143H256z" fill="#A58FED" p-id="4270"></path><path d="M256 362.057143h54.857143v3.657143H256z" fill="#A48FED" p-id="4271"></path><path d="M256 358.4h54.857143v3.657143H256z" fill="#A38EED" p-id="4272"></path><path d="M256 354.742857h54.857143v3.657143H256z" fill="#A28EED" p-id="4273"></path><path d="M256 351.085714h54.857143v3.657143H256z" fill="#A18DED" p-id="4274"></path><path d="M256 347.428571h54.857143v3.657143H256z" fill="#A08DEE" p-id="4275"></path><path d="M256 343.771429h54.857143v3.657142H256z" fill="#9F8CEE" p-id="4276"></path><path d="M256 340.114286h54.857143v3.657143H256z" fill="#9E8CEE" p-id="4277"></path><path d="M256 336.457143h54.857143v3.657143H256z" fill="#9D8BEE" p-id="4278"></path><path d="M296.228571 446.171429s10.971429-54.857143-25.6-95.085715c0 0-40.228571 18.285714-58.514285 91.428572s32.914286 117.028571 32.914285 117.028571l51.2-113.371428z" fill="#F493FF" p-id="4279"></path><path d="M318.171429 351.085714c7.314286 3.657143 7.314286 10.971429-7.314286 10.971429-14.628571-3.657143-21.942857-14.628571-21.942857-14.628572 3.657143-3.657143 21.942857 0 29.257143 3.657143z" fill="#FFFFFF" p-id="4280"></path><path d="M179.2 771.657143l658.285714 84.114286h-658.285714z" fill="#CAC0F6" p-id="4281"></path><path d="M179.2 753.371429l669.257143 84.114285v18.285715h-10.971429l-658.285714-84.114286z" fill="#CAC0F6" p-id="4282"></path><path d="M179.2 735.085714l669.257143 84.114286v18.285714L179.2 753.371429z" fill="#CBC1F6" p-id="4283"></path><path d="M179.2 716.8l669.257143 84.114286v18.285714L179.2 735.085714z" fill="#CCC2F6" p-id="4284"></path><path d="M179.2 702.171429l669.257143 84.114285v14.628572L179.2 716.8z" fill="#CDC3F6" p-id="4285"></path><path d="M179.2 683.885714L848.457143 768v18.285714L179.2 702.171429z" fill="#CEC4F6" p-id="4286"></path><path d="M179.2 665.6l669.257143 84.114286v18.285714L179.2 683.885714z" fill="#CFC5F6" p-id="4287"></path><path d="M179.2 647.314286L848.457143 731.428571v18.285715L179.2 665.6z" fill="#D0C6F6" p-id="4288"></path><path d="M179.2 629.028571l669.257143 84.114286v18.285714L179.2 647.314286z" fill="#D1C7F6" p-id="4289"></path><path d="M179.2 610.742857L848.457143 694.857143v18.285714L179.2 629.028571z" fill="#D2C8F6" p-id="4290"></path><path d="M179.2 592.457143l669.257143 84.114286v18.285714L179.2 610.742857z" fill="#D3C9F6" p-id="4291"></path><path d="M179.2 577.828571l669.257143 84.114286v14.628572L179.2 592.457143z" fill="#D4CAF6" p-id="4292"></path><path d="M179.2 559.542857l669.257143 84.114286v18.285714L179.2 577.828571z" fill="#D5CBF6" p-id="4293"></path><path d="M179.2 541.257143l669.257143 84.114286v18.285714L179.2 559.542857z" fill="#D6CCF6" p-id="4294"></path><path d="M179.2 522.971429l669.257143 84.114285v18.285715L179.2 541.257143z" fill="#D7CDF6" p-id="4295"></path><path d="M179.2 504.685714l669.257143 84.114286v18.285714L179.2 522.971429z" fill="#D9CEF6" p-id="4296"></path><path d="M179.2 486.4l669.257143 84.114286v18.285714L179.2 504.685714z" fill="#DACEF6" p-id="4297"></path><path d="M179.2 471.771429l669.257143 84.114285v14.628572L179.2 486.4z" fill="#DBCFF6" p-id="4298"></path><path d="M179.2 453.485714l669.257143 84.114286v18.285714L179.2 471.771429z" fill="#DCD0F6" p-id="4299"></path><path d="M179.2 435.2l669.257143 84.114286v18.285714L179.2 453.485714z" fill="#DDD1F6" p-id="4300"></path><path d="M179.2 416.914286l669.257143 84.114285v18.285715L179.2 435.2z" fill="#DED2F6" p-id="4301"></path><path d="M179.2 398.628571l669.257143 84.114286v18.285714L179.2 416.914286z" fill="#DFD3F6" p-id="4302"></path><path d="M179.2 380.342857l669.257143 84.114286v18.285714L179.2 398.628571z" fill="#E0D4F6" p-id="4303"></path><path d="M179.2 362.057143l669.257143 84.114286v18.285714L179.2 380.342857z" fill="#E1D5F6" p-id="4304"></path><path d="M179.2 347.428571l669.257143 84.114286v14.628572L179.2 362.057143z" fill="#E2D6F6" p-id="4305"></path><path d="M179.2 329.142857l669.257143 84.114286v18.285714L179.2 347.428571z" fill="#E3D7F6" p-id="4306"></path><path d="M179.2 310.857143l669.257143 84.114286v18.285714L179.2 329.142857z" fill="#E4D8F6" p-id="4307"></path><path d="M179.2 292.571429l669.257143 84.114285v18.285715L179.2 310.857143z" fill="#E5D9F6" p-id="4308"></path><path d="M292.571429 288.914286l555.885714 69.485714v18.285714L179.2 292.571429v-3.657143z" fill="#E6DAF6" p-id="4309"></path><path d="M431.542857 288.914286l416.914286 51.2v18.285714L292.571429 288.914286z" fill="#E7DBF6" p-id="4310"></path><path d="M848.457143 340.114286L431.542857 288.914286h416.914286z" fill="#E7DBF6" p-id="4311"></path><path d="M223.085714 775.314286h585.142857v36.571428h-585.142857z" fill="#0665BC" p-id="4312"></path><path d="M223.085714 771.657143h585.142857v7.314286h-585.142857z" fill="#0665BC" p-id="4313"></path><path d="M223.085714 764.342857h585.142857v7.314286h-585.142857z" fill="#0664BB" p-id="4314"></path><path d="M223.085714 757.028571h585.142857v7.314286h-585.142857z" fill="#0763BA" p-id="4315"></path><path d="M223.085714 753.371429h585.142857v7.314285h-585.142857z" fill="#0762B9" p-id="4316"></path><path d="M223.085714 746.057143h585.142857v7.314286h-585.142857z" fill="#0761B8" p-id="4317"></path><path d="M223.085714 742.4h585.142857v7.314286h-585.142857z" fill="#0760B7" p-id="4318"></path><path d="M223.085714 735.085714h585.142857v7.314286h-585.142857z" fill="#085FB6" p-id="4319"></path><path d="M223.085714 727.771429h585.142857v7.314285h-585.142857z" fill="#085EB5" p-id="4320"></path><path d="M223.085714 724.114286h585.142857v7.314285h-585.142857z" fill="#085DB4" p-id="4321"></path><path d="M223.085714 716.8h585.142857v7.314286h-585.142857z" fill="#095CB3" p-id="4322"></path><path d="M223.085714 709.485714h585.142857v7.314286h-585.142857z" fill="#095BB2" p-id="4323"></path><path d="M223.085714 705.828571h585.142857v7.314286h-585.142857z" fill="#095AB1" p-id="4324"></path><path d="M223.085714 698.514286h585.142857v7.314285h-585.142857z" fill="#0959B0" p-id="4325"></path><path d="M223.085714 694.857143h585.142857v7.314286h-585.142857z" fill="#0A58AF" p-id="4326"></path><path d="M223.085714 687.542857h585.142857v7.314286h-585.142857z" fill="#0A57AE" p-id="4327"></path><path d="M223.085714 680.228571h585.142857v7.314286h-585.142857z" fill="#0A56AD" p-id="4328"></path><path d="M223.085714 676.571429h585.142857v7.314285h-585.142857z" fill="#0B55AC" p-id="4329"></path><path d="M223.085714 669.257143h585.142857v7.314286h-585.142857z" fill="#0B54AB" p-id="4330"></path><path d="M223.085714 661.942857h585.142857v7.314286h-585.142857z" fill="#0B53AA" p-id="4331"></path><path d="M223.085714 658.285714h585.142857v7.314286h-585.142857z" fill="#0C52A9" p-id="4332"></path><path d="M223.085714 650.971429h585.142857v7.314285h-585.142857z" fill="#0C51A8" p-id="4333"></path><path d="M223.085714 643.657143h585.142857v7.314286h-585.142857z" fill="#0C50A7" p-id="4334"></path><path d="M223.085714 640h585.142857v7.314286h-585.142857z" fill="#0C4FA6" p-id="4335"></path><path d="M223.085714 632.685714h585.142857v7.314286h-585.142857z" fill="#0D4EA5" p-id="4336"></path><path d="M223.085714 629.028571h585.142857v7.314286h-585.142857z" fill="#0D4DA4" p-id="4337"></path><path d="M223.085714 621.714286h585.142857v7.314285h-585.142857z" fill="#0D4CA3" p-id="4338"></path><path d="M223.085714 614.4h585.142857v7.314286h-585.142857z" fill="#0E4BA2" p-id="4339"></path><path d="M223.085714 610.742857h585.142857v7.314286h-585.142857z" fill="#0E4AA1" p-id="4340"></path><path d="M223.085714 603.428571h585.142857v7.314286h-585.142857z" fill="#0E49A0" p-id="4341"></path><path d="M223.085714 596.114286h585.142857v7.314285h-585.142857z" fill="#0E489F" p-id="4342"></path><path d="M223.085714 592.457143h585.142857v7.314286h-585.142857z" fill="#0F479E" p-id="4343"></path><path d="M223.085714 585.142857h585.142857v7.314286h-585.142857z" fill="#0F469D" p-id="4344"></path><path d="M223.085714 577.828571h585.142857v7.314286h-585.142857z" fill="#0F459C" p-id="4345"></path><path d="M223.085714 574.171429h585.142857v7.314285h-585.142857z" fill="#10449B" p-id="4346"></path><path d="M223.085714 566.857143h585.142857v7.314286h-585.142857z" fill="#10439A" p-id="4347"></path><path d="M223.085714 563.2h585.142857v7.314286h-585.142857z" fill="#104199" p-id="4348"></path><path d="M223.085714 555.885714h585.142857v7.314286h-585.142857z" fill="#104098" p-id="4349"></path><path d="M223.085714 548.571429h585.142857v7.314285h-585.142857z" fill="#113F97" p-id="4350"></path><path d="M223.085714 544.914286h585.142857v7.314285h-585.142857z" fill="#113E96" p-id="4351"></path><path d="M223.085714 537.6h585.142857v7.314286h-585.142857z" fill="#113D95" p-id="4352"></path><path d="M223.085714 530.285714h585.142857v7.314286h-585.142857z" fill="#123C94" p-id="4353"></path><path d="M223.085714 526.628571h585.142857v7.314286h-585.142857z" fill="#123B93" p-id="4354"></path><path d="M223.085714 519.314286h585.142857v7.314285h-585.142857z" fill="#123A92" p-id="4355"></path><path d="M223.085714 515.657143h585.142857v7.314286h-585.142857z" fill="#123991" p-id="4356"></path><path d="M223.085714 508.342857h585.142857v7.314286h-585.142857z" fill="#133890" p-id="4357"></path><path d="M223.085714 501.028571h585.142857v7.314286h-585.142857z" fill="#13378F" p-id="4358"></path><path d="M223.085714 497.371429h585.142857v7.314285h-585.142857z" fill="#13368E" p-id="4359"></path><path d="M223.085714 490.057143h585.142857v7.314286h-585.142857z" fill="#14358D" p-id="4360"></path><path d="M223.085714 482.742857h585.142857v7.314286h-585.142857z" fill="#14348C" p-id="4361"></path><path d="M223.085714 479.085714h585.142857v7.314286h-585.142857z" fill="#14338B" p-id="4362"></path><path d="M223.085714 471.771429h585.142857v7.314285h-585.142857z" fill="#14328A" p-id="4363"></path><path d="M223.085714 464.457143h585.142857v7.314286h-585.142857z" fill="#153189" p-id="4364"></path><path d="M223.085714 460.8h585.142857v7.314286h-585.142857z" fill="#153088" p-id="4365"></path><path d="M223.085714 453.485714h585.142857v7.314286h-585.142857z" fill="#152F87" p-id="4366"></path><path d="M223.085714 449.828571h585.142857v7.314286h-585.142857z" fill="#162E86" p-id="4367"></path><path d="M223.085714 442.514286h585.142857v7.314285h-585.142857z" fill="#162D85" p-id="4368"></path><path d="M223.085714 435.2h585.142857v7.314286h-585.142857z" fill="#162C84" p-id="4369"></path><path d="M223.085714 431.542857h585.142857v7.314286h-585.142857z" fill="#172B83" p-id="4370"></path><path d="M223.085714 424.228571h585.142857v7.314286h-585.142857z" fill="#172A82" p-id="4371"></path><path d="M223.085714 416.914286h585.142857v7.314285h-585.142857z" fill="#172981" p-id="4372"></path><path d="M223.085714 413.257143h585.142857v7.314286h-585.142857z" fill="#172880" p-id="4373"></path><path d="M223.085714 405.942857h585.142857v7.314286h-585.142857z" fill="#18277F" p-id="4374"></path><path d="M223.085714 398.628571h585.142857v7.314286h-585.142857z" fill="#18267E" p-id="4375"></path><path d="M223.085714 394.971429h585.142857v7.314285h-585.142857z" fill="#18257D" p-id="4376"></path><path d="M223.085714 387.657143h585.142857v7.314286h-585.142857z" fill="#19247C" p-id="4377"></path><path d="M223.085714 384h585.142857v7.314286h-585.142857z" fill="#19237B" p-id="4378"></path><path d="M223.085714 376.685714h585.142857v7.314286h-585.142857z" fill="#19227A" p-id="4379"></path><path d="M223.085714 369.371429h585.142857v7.314285h-585.142857z" fill="#192179" p-id="4380"></path><path d="M223.085714 365.714286h585.142857v7.314285h-585.142857z" fill="#1A2078" p-id="4381"></path><path d="M223.085714 358.4h585.142857v7.314286h-585.142857zM223.085714 351.085714h585.142857v7.314286h-585.142857z" fill="#1A1F77" p-id="4382"></path><path d="M577.828571 585.142857l54.857143 7.314286h-54.857143z" fill="#45FFCC" p-id="4383"></path><path d="M577.828571 585.142857l69.485715 7.314286h-14.628572l-54.857143-7.314286z" fill="#45FFCC" p-id="4384"></path><path d="M577.828571 581.485714l84.114286 10.971429h-14.628571l-69.485715-7.314286z" fill="#44FECD" p-id="4385"></path><path d="M577.828571 581.485714l98.742858 10.971429h-14.628572l-84.114286-10.971429z" fill="#44FECE" p-id="4386"></path><path d="M577.828571 577.828571l113.371429 14.628572h-14.628571l-98.742858-10.971429z" fill="#43FDCF" p-id="4387"></path><path d="M577.828571 577.828571l120.685715 14.628572h-7.314286l-113.371429-14.628572z" fill="#42FCD0" p-id="4388"></path><path d="M577.828571 574.171429l120.685715 18.285714-120.685715-14.628572z" fill="#42FCD1" p-id="4389"></path><path d="M577.828571 574.171429l120.685715 14.628571v3.657143l-120.685715-18.285714z" fill="#41FBD2" p-id="4390"></path><path d="M577.828571 570.514286l120.685715 14.628571v3.657143l-120.685715-14.628571z" fill="#40FBD3" p-id="4391"></path><path d="M577.828571 570.514286l120.685715 14.628571-120.685715-14.628571z" fill="#3FFAD4" p-id="4392"></path><path d="M577.828571 566.857143l120.685715 14.628571v3.657143l-120.685715-14.628571z" fill="#3FF9D5" p-id="4393"></path><path d="M577.828571 563.2l120.685715 18.285714-120.685715-14.628571z" fill="#3EF9D6" p-id="4394"></path><path d="M577.828571 563.2l120.685715 14.628571v3.657143l-120.685715-18.285714z" fill="#3DF8D7" p-id="4395"></path><path d="M577.828571 559.542857l120.685715 18.285714-120.685715-14.628571z" fill="#3DF7D8" p-id="4396"></path><path d="M577.828571 559.542857l120.685715 14.628572v3.657142l-120.685715-18.285714z" fill="#3CF7D9" p-id="4397"></path><path d="M577.828571 555.885714l120.685715 18.285715-120.685715-14.628572z" fill="#3BF6DA" p-id="4398"></path><path d="M577.828571 555.885714l120.685715 14.628572v3.657143l-120.685715-18.285715z" fill="#3BF5DB" p-id="4399"></path><path d="M577.828571 552.228571l120.685715 18.285715-120.685715-14.628572z" fill="#3AF5DC" p-id="4400"></path><path d="M577.828571 552.228571l120.685715 14.628572v3.657143l-120.685715-18.285715z" fill="#39F4DD" p-id="4401"></path><path d="M577.828571 548.571429l120.685715 14.628571v3.657143l-120.685715-14.628572z" fill="#38F3DE" p-id="4402"></path><path d="M577.828571 548.571429l120.685715 14.628571-120.685715-14.628571z" fill="#38F3DF" p-id="4403"></path><path d="M577.828571 544.914286l120.685715 14.628571v3.657143l-120.685715-14.628571z" fill="#37F2E0" p-id="4404"></path><path d="M577.828571 541.257143l120.685715 18.285714-120.685715-14.628571z" fill="#36F2E1" p-id="4405"></path><path d="M577.828571 541.257143l120.685715 14.628571v3.657143l-120.685715-18.285714z" fill="#36F1E2" p-id="4406"></path><path d="M577.828571 537.6l120.685715 18.285714-120.685715-14.628571z" fill="#35F0E3" p-id="4407"></path><path d="M577.828571 537.6l120.685715 14.628571v3.657143l-120.685715-18.285714z" fill="#34F0E4" p-id="4408"></path><path d="M577.828571 533.942857l120.685715 18.285714-120.685715-14.628571z" fill="#34EFE6" p-id="4409"></path><path d="M577.828571 533.942857l120.685715 14.628572v3.657142l-120.685715-18.285714z" fill="#33EEE7" p-id="4410"></path><path d="M577.828571 530.285714l120.685715 18.285715-120.685715-14.628572z" fill="#32EEE8" p-id="4411"></path><path d="M577.828571 530.285714l120.685715 14.628572v3.657143l-120.685715-18.285715z" fill="#31EDE9" p-id="4412"></path><path d="M577.828571 526.628571l120.685715 14.628572v3.657143l-120.685715-14.628572z" fill="#31ECEA" p-id="4413"></path><path d="M577.828571 522.971429l120.685715 18.285714-120.685715-14.628572z" fill="#30ECEB" p-id="4414"></path><path d="M577.828571 522.971429l120.685715 14.628571v3.657143l-120.685715-18.285714z" fill="#2FEBEC" p-id="4415"></path><path d="M577.828571 519.314286l120.685715 18.285714-120.685715-14.628571z" fill="#2FEBED" p-id="4416"></path><path d="M577.828571 519.314286l120.685715 14.628571v3.657143l-120.685715-18.285714z" fill="#2EEAEE" p-id="4417"></path><path d="M577.828571 515.657143l120.685715 18.285714-120.685715-14.628571z" fill="#2DE9EF" p-id="4418"></path><path d="M577.828571 515.657143l120.685715 14.628571v3.657143l-120.685715-18.285714z" fill="#2DE9F0" p-id="4419"></path><path d="M577.828571 512l120.685715 18.285714-120.685715-14.628571z" fill="#2CE8F1" p-id="4420"></path><path d="M577.828571 512l120.685715 14.628571v3.657143l-120.685715-18.285714z" fill="#2BE7F2" p-id="4421"></path><path d="M577.828571 508.342857l120.685715 18.285714-120.685715-14.628571z" fill="#2AE7F3" p-id="4422"></path><path d="M577.828571 508.342857l120.685715 14.628572v3.657142l-120.685715-18.285714z" fill="#2AE6F4" p-id="4423"></path><path d="M577.828571 504.685714l120.685715 14.628572v3.657143l-120.685715-14.628572z" fill="#29E5F5" p-id="4424"></path><path d="M577.828571 501.028571l120.685715 18.285715-120.685715-14.628572z" fill="#28E5F6" p-id="4425"></path><path d="M577.828571 501.028571l120.685715 14.628572v3.657143l-120.685715-18.285715z" fill="#28E4F7" p-id="4426"></path><path d="M577.828571 497.371429l120.685715 18.285714-120.685715-14.628572z" fill="#27E3F8" p-id="4427"></path><path d="M577.828571 497.371429l120.685715 14.628571v3.657143l-120.685715-18.285714z" fill="#26E3F9" p-id="4428"></path><path d="M577.828571 493.714286l120.685715 18.285714-120.685715-14.628571z" fill="#26E2FA" p-id="4429"></path><path d="M577.828571 493.714286l120.685715 14.628571v3.657143l-120.685715-18.285714z" fill="#25E2FB" p-id="4430"></path><path d="M596.114286 493.714286l102.4 14.628571-120.685715-14.628571z" fill="#24E1FC" p-id="4431"></path><path d="M610.742857 493.714286l87.771429 10.971428v3.657143l-102.4-14.628571z" fill="#23E0FD" p-id="4432"></path><path d="M625.371429 493.714286l73.142857 10.971428-87.771429-10.971428z" fill="#23E0FE" p-id="4433"></path><path d="M640 493.714286l58.514286 7.314285v3.657143l-73.142857-10.971428z" fill="#22DFFF" p-id="4434"></path><path d="M698.514286 501.028571l-58.514286-7.314285h58.514286z" fill="#22DFFF" p-id="4435"></path><path d="M391.314286 596.114286l65.828571-10.971429v10.971429z" fill="#45FFCC" p-id="4436"></path><path d="M380.342857 596.114286l76.8-14.628572v3.657143l-65.828571 10.971429z" fill="#45FFCC" p-id="4437"></path><path d="M369.371429 596.114286l87.771428-18.285715v3.657143l-76.8 14.628572z" fill="#44FECD" p-id="4438"></path><path d="M358.4 596.114286l98.742857-18.285715-87.771428 18.285715z" fill="#44FECE" p-id="4439"></path><path d="M347.428571 596.114286l109.714286-21.942857v3.657142l-98.742857 18.285715z" fill="#43FDCF" p-id="4440"></path><path d="M336.457143 596.114286l120.685714-21.942857-109.714286 21.942857z" fill="#42FCD0" p-id="4441"></path><path d="M332.8 596.114286l124.342857-25.6v3.657143l-120.685714 21.942857h-3.657143z" fill="#42FCD1" p-id="4442"></path><path d="M332.8 592.457143l124.342857-21.942857-124.342857 25.6z" fill="#41FBD2" p-id="4443"></path><path d="M332.8 592.457143l124.342857-25.6v3.657143l-124.342857 21.942857z" fill="#40FBD3" p-id="4444"></path><path d="M332.8 588.8l124.342857-21.942857-124.342857 25.6z" fill="#3FFAD4" p-id="4445"></path><path d="M332.8 585.142857l124.342857-21.942857v3.657143l-124.342857 21.942857z" fill="#3FF9D5" p-id="4446"></path><path d="M332.8 585.142857l124.342857-25.6v3.657143l-124.342857 21.942857z" fill="#3EF9D6" p-id="4447"></path><path d="M332.8 581.485714l124.342857-21.942857-124.342857 25.6z" fill="#3DF8D7" p-id="4448"></path><path d="M332.8 581.485714l124.342857-25.6v3.657143l-124.342857 21.942857z" fill="#3DF7D8" p-id="4449"></path><path d="M332.8 577.828571l124.342857-21.942857-124.342857 25.6z" fill="#3CF7D9" p-id="4450"></path><path d="M332.8 577.828571l124.342857-25.6v3.657143l-124.342857 21.942857z" fill="#3BF6DA" p-id="4451"></path><path d="M332.8 574.171429l124.342857-21.942858-124.342857 25.6z" fill="#3BF5DB" p-id="4452"></path><path d="M332.8 574.171429l124.342857-25.6v3.657142l-124.342857 21.942858z" fill="#3AF5DC" p-id="4453"></path><path d="M332.8 570.514286l124.342857-21.942857-124.342857 25.6z" fill="#39F4DD" p-id="4454"></path><path d="M332.8 566.857143l124.342857-21.942857v3.657143l-124.342857 21.942857z" fill="#38F3DE" p-id="4455"></path><path d="M332.8 566.857143l124.342857-25.6v3.657143l-124.342857 21.942857z" fill="#38F3DF" p-id="4456"></path><path d="M332.8 563.2l124.342857-21.942857-124.342857 25.6z" fill="#37F2E0" p-id="4457"></path><path d="M332.8 563.2l124.342857-25.6v3.657143l-124.342857 21.942857z" fill="#36F2E1" p-id="4458"></path><path d="M332.8 559.542857l124.342857-21.942857-124.342857 25.6z" fill="#36F1E2" p-id="4459"></path><path d="M332.8 559.542857l124.342857-25.6v3.657143l-124.342857 21.942857z" fill="#35F0E3" p-id="4460"></path><path d="M332.8 555.885714l124.342857-21.942857-124.342857 25.6z" fill="#34F0E4" p-id="4461"></path><path d="M332.8 555.885714l124.342857-25.6v3.657143l-124.342857 21.942857z" fill="#34EFE6" p-id="4462"></path><path d="M332.8 552.228571l124.342857-21.942857-124.342857 25.6z" fill="#33EEE7" p-id="4463"></path><path d="M332.8 552.228571l124.342857-25.6v3.657143l-124.342857 21.942857z" fill="#32EEE8" p-id="4464"></path><path d="M332.8 548.571429l124.342857-21.942858-124.342857 25.6z" fill="#31EDE9" p-id="4465"></path><path d="M332.8 544.914286l124.342857-21.942857v3.657142l-124.342857 21.942858z" fill="#31ECEA" p-id="4466"></path><path d="M332.8 544.914286l124.342857-25.6v3.657143l-124.342857 21.942857z" fill="#30ECEB" p-id="4467"></path><path d="M332.8 541.257143l124.342857-21.942857-124.342857 25.6z" fill="#2FEBEC" p-id="4468"></path><path d="M332.8 541.257143l124.342857-25.6v3.657143l-124.342857 21.942857z" fill="#2FEBED" p-id="4469"></path><path d="M332.8 537.6l124.342857-21.942857-124.342857 25.6z" fill="#2EEAEE" p-id="4470"></path><path d="M332.8 537.6l124.342857-25.6v3.657143l-124.342857 21.942857z" fill="#2DE9EF" p-id="4471"></path><path d="M332.8 533.942857l124.342857-21.942857-124.342857 25.6z" fill="#2DE9F0" p-id="4472"></path><path d="M332.8 533.942857l124.342857-25.6v3.657143l-124.342857 21.942857z" fill="#2CE8F1" p-id="4473"></path><path d="M332.8 530.285714l124.342857-21.942857-124.342857 25.6z" fill="#2BE7F2" p-id="4474"></path><path d="M332.8 526.628571l124.342857-21.942857v3.657143l-124.342857 21.942857z" fill="#2AE7F3" p-id="4475"></path><path d="M332.8 526.628571l124.342857-25.6v3.657143l-124.342857 21.942857z" fill="#2AE6F4" p-id="4476"></path><path d="M332.8 522.971429l124.342857-21.942858-124.342857 25.6z" fill="#29E5F5" p-id="4477"></path><path d="M332.8 522.971429l124.342857-25.6v3.657142l-124.342857 21.942858z" fill="#28E5F6" p-id="4478"></path><path d="M332.8 519.314286l124.342857-21.942857-124.342857 25.6z" fill="#28E4F7" p-id="4479"></path><path d="M332.8 519.314286l124.342857-25.6v3.657143l-124.342857 21.942857z" fill="#27E3F8" p-id="4480"></path><path d="M332.8 515.657143l124.342857-21.942857-124.342857 25.6z" fill="#26E3F9" p-id="4481"></path><path d="M332.8 515.657143l120.685714-25.6h3.657143v3.657143l-124.342857 21.942857z" fill="#26E2FA" p-id="4482"></path><path d="M332.8 512l109.714286-21.942857h10.971428l-120.685714 25.6z" fill="#25E2FB" p-id="4483"></path><path d="M332.8 508.342857l98.742857-18.285714h10.971429l-109.714286 21.942857z" fill="#24E1FC" p-id="4484"></path><path d="M332.8 508.342857l87.771429-18.285714h10.971428l-98.742857 18.285714z" fill="#23E0FD" p-id="4485"></path><path d="M332.8 504.685714l80.457143-14.628571h7.314286l-87.771429 18.285714z" fill="#23E0FE" p-id="4486"></path><path d="M332.8 504.685714l69.485714-14.628571h10.971429l-80.457143 14.628571z" fill="#22DFFF" p-id="4487"></path><path d="M402.285714 490.057143l-69.485714 14.628571v-14.628571z" fill="#22DFFF" p-id="4488"></path><path d="M574.171429 329.142857c-3.657143 3.657143 40.228571 25.6 47.542857 21.942857 3.657143-3.657143-36.571429-40.228571-47.542857-21.942857z" fill="#FFFFFF" p-id="4489"></path><path d="M336.457143 373.028571h3.657143v193.828572h-3.657143z" opacity=".5" p-id="4490"></path><path d="M709.485714 373.028571h7.314286v193.828572h-7.314286z" fill="#6A9AFF" opacity=".5" p-id="4491"></path><path d="M281.6 694.857143l40.228571 3.657143v10.971428H281.6z" opacity=".1" p-id="4492"></path><path d="M281.6 694.857143l40.228571 3.657143-40.228571-3.657143z" opacity=".1" p-id="4493"></path><path d="M281.6 694.857143h40.228571v3.657143L281.6 694.857143z" fill="#000101" opacity=".1" p-id="4494"></path><path d="M281.6 691.2l40.228571 3.657143H281.6z" fill="#000202" opacity=".1" p-id="4495"></path><path d="M281.6 691.2l40.228571 3.657143-40.228571-3.657143z" fill="#000303" opacity=".1" p-id="4496"></path><path d="M281.6 691.2l40.228571 3.657143-40.228571-3.657143z" fill="#000404" opacity=".1" p-id="4497"></path><path d="M281.6 691.2l40.228571 3.657143-40.228571-3.657143z" fill="#000405" opacity=".1" p-id="4498"></path><path d="M281.6 691.2l40.228571 3.657143-40.228571-3.657143z" fill="#000506" opacity=".1" p-id="4499"></path><path d="M281.6 691.2l40.228571 3.657143-40.228571-3.657143z" fill="#000607" opacity=".1" p-id="4500"></path><path d="M281.6 691.2h40.228571v3.657143l-40.228571-3.657143z" fill="#000708" opacity=".1" p-id="4501"></path><path d="M281.6 687.542857l40.228571 3.657143H281.6z" fill="#000809" opacity=".1" p-id="4502"></path><path d="M281.6 687.542857l40.228571 3.657143-40.228571-3.657143z" fill="#00090A" opacity=".1" p-id="4503"></path><path d="M281.6 687.542857l40.228571 3.657143-40.228571-3.657143z" fill="#000A0B" opacity=".1" p-id="4504"></path><path d="M281.6 687.542857l40.228571 3.657143-40.228571-3.657143z" fill="#000B0C" opacity=".1" p-id="4505"></path><path d="M281.6 687.542857l40.228571 3.657143-40.228571-3.657143z" fill="#000C0D" opacity=".1" p-id="4506"></path><path d="M281.6 687.542857h40.228571v3.657143l-40.228571-3.657143z" fill="#000C0E" opacity=".1" p-id="4507"></path><path d="M281.6 687.542857h40.228571-40.228571z" fill="#000D0F" opacity=".1" p-id="4508"></path><path d="M281.6 683.885714l40.228571 3.657143H281.6z" fill="#000E10" opacity=".1" p-id="4509"></path><path d="M281.6 683.885714l40.228571 3.657143-40.228571-3.657143z" fill="#000F11" opacity=".1" p-id="4510"></path><path d="M281.6 683.885714l40.228571 3.657143-40.228571-3.657143z" fill="#001012" opacity=".1" p-id="4511"></path><path d="M281.6 683.885714l40.228571 3.657143-40.228571-3.657143z" fill="#001113" opacity=".1" p-id="4512"></path><path d="M281.6 683.885714l40.228571 3.657143-40.228571-3.657143z" fill="#001214" opacity=".1" p-id="4513"></path><path d="M281.6 683.885714h40.228571v3.657143l-40.228571-3.657143z" fill="#001315" opacity=".1" p-id="4514"></path><path d="M281.6 683.885714h40.228571-40.228571z" fill="#001416" opacity=".1" p-id="4515"></path><path d="M281.6 680.228571l40.228571 3.657143H281.6z" fill="#001417" opacity=".1" p-id="4516"></path><path d="M281.6 680.228571l40.228571 3.657143-40.228571-3.657143z" fill="#001518" opacity=".1" p-id="4517"></path><path d="M281.6 680.228571l40.228571 3.657143-40.228571-3.657143z" fill="#001619" opacity=".1" p-id="4518"></path><path d="M281.6 680.228571l40.228571 3.657143-40.228571-3.657143z" fill="#00171A" opacity=".1" p-id="4519"></path><path d="M281.6 680.228571l40.228571 3.657143-40.228571-3.657143z" fill="#00181B" opacity=".1" p-id="4520"></path><path d="M281.6 680.228571h40.228571v3.657143l-40.228571-3.657143z" fill="#00191C" opacity=".1" p-id="4521"></path><path d="M281.6 676.571429l40.228571 3.657142H281.6z" fill="#001A1D" opacity=".1" p-id="4522"></path><path d="M281.6 676.571429l40.228571 3.657142-40.228571-3.657142z" fill="#001B1E" opacity=".1" p-id="4523"></path><path d="M281.6 676.571429l40.228571 3.657142-40.228571-3.657142z" fill="#001C1F" opacity=".1" p-id="4524"></path><path d="M281.6 676.571429l40.228571 3.657142-40.228571-3.657142z" fill="#001C20" opacity=".1" p-id="4525"></path><path d="M281.6 676.571429l40.228571 3.657142-40.228571-3.657142z" fill="#001D21" opacity=".1" p-id="4526"></path><path d="M281.6 676.571429l40.228571 3.657142-40.228571-3.657142z" fill="#001E22" opacity=".1" p-id="4527"></path><path d="M281.6 676.571429h40.228571v3.657142l-40.228571-3.657142z" fill="#001F23" opacity=".1" p-id="4528"></path><path d="M281.6 672.914286l40.228571 3.657143H281.6z" fill="#002024" opacity=".1" p-id="4529"></path><path d="M281.6 672.914286l40.228571 3.657143-40.228571-3.657143z" fill="#002125" opacity=".1" p-id="4530"></path><path d="M281.6 672.914286l40.228571 3.657143-40.228571-3.657143z" fill="#002226" opacity=".1" p-id="4531"></path><path d="M281.6 672.914286l40.228571 3.657143-40.228571-3.657143z" fill="#002327" opacity=".1" p-id="4532"></path><path d="M281.6 672.914286l40.228571 3.657143-40.228571-3.657143z" fill="#002428" opacity=".1" p-id="4533"></path><path d="M281.6 672.914286l40.228571 3.657143-40.228571-3.657143z" fill="#002429" opacity=".1" p-id="4534"></path><path d="M281.6 672.914286h40.228571v3.657143l-40.228571-3.657143z" fill="#00252A" opacity=".1" p-id="4535"></path><path d="M281.6 669.257143l40.228571 3.657143H281.6z" fill="#00262B" opacity=".1" p-id="4536"></path><path d="M281.6 669.257143l40.228571 3.657143-40.228571-3.657143z" fill="#00272C" opacity=".1" p-id="4537"></path><path d="M281.6 669.257143l40.228571 3.657143-40.228571-3.657143z" fill="#00282D" opacity=".1" p-id="4538"></path><path d="M281.6 669.257143l40.228571 3.657143-40.228571-3.657143z" fill="#00292E" opacity=".1" p-id="4539"></path><path d="M281.6 669.257143l40.228571 3.657143-40.228571-3.657143z" fill="#002A2F" opacity=".1" p-id="4540"></path><path d="M281.6 669.257143h40.228571v3.657143l-40.228571-3.657143z" fill="#002B30" opacity=".1" p-id="4541"></path><path d="M281.6 669.257143h40.228571-40.228571z" fill="#002C31" opacity=".1" p-id="4542"></path><path d="M281.6 665.6l40.228571 3.657143H281.6z" fill="#002C32" opacity=".1" p-id="4543"></path><path d="M281.6 665.6l40.228571 3.657143-40.228571-3.657143z" fill="#002D33" opacity=".1" p-id="4544"></path><path d="M281.6 665.6l40.228571 3.657143-40.228571-3.657143z" fill="#002E34" opacity=".1" p-id="4545"></path><path d="M281.6 665.6l40.228571 3.657143-40.228571-3.657143z" fill="#002F35" opacity=".1" p-id="4546"></path><path d="M281.6 665.6l40.228571 3.657143-40.228571-3.657143z" fill="#003036" opacity=".1" p-id="4547"></path><path d="M281.6 665.6h40.228571v3.657143l-40.228571-3.657143z" fill="#003137" opacity=".1" p-id="4548"></path><path d="M281.6 665.6h40.228571-40.228571z" fill="#003238" opacity=".1" p-id="4549"></path><path d="M281.6 661.942857l40.228571 3.657143H281.6z" fill="#003339" opacity=".1" p-id="4550"></path><path d="M281.6 661.942857l40.228571 3.657143-40.228571-3.657143z" fill="#00343A" opacity=".1" p-id="4551"></path><path d="M281.6 661.942857l40.228571 3.657143-40.228571-3.657143z" fill="#00343B" opacity=".1" p-id="4552"></path><path d="M281.6 661.942857l40.228571 3.657143-40.228571-3.657143z" fill="#00353C" opacity=".1" p-id="4553"></path><path d="M281.6 661.942857l40.228571 3.657143-40.228571-3.657143z" fill="#00363D" opacity=".1" p-id="4554"></path><path d="M281.6 661.942857h40.228571v3.657143l-40.228571-3.657143z" fill="#00373E" opacity=".1" p-id="4555"></path><path d="M281.6 658.285714l40.228571 3.657143H281.6z" fill="#00383F" opacity=".1" p-id="4556"></path><path d="M281.6 658.285714l40.228571 3.657143-40.228571-3.657143z" fill="#003940" opacity=".1" p-id="4557"></path><path d="M281.6 658.285714l40.228571 3.657143-40.228571-3.657143z" fill="#003A41" opacity=".1" p-id="4558"></path><path d="M281.6 658.285714l40.228571 3.657143-40.228571-3.657143z" fill="#003B42" opacity=".1" p-id="4559"></path><path d="M281.6 658.285714l40.228571 3.657143-40.228571-3.657143z" fill="#003C43" opacity=".1" p-id="4560"></path><path d="M281.6 658.285714l40.228571 3.657143-40.228571-3.657143z" fill="#003D44" opacity=".1" p-id="4561"></path><path d="M281.6 658.285714h40.228571v3.657143L281.6 658.285714z" fill="#003D45" opacity=".1" p-id="4562"></path><path d="M281.6 654.628571l40.228571 3.657143H281.6z" fill="#003E46" opacity=".1" p-id="4563"></path><path d="M281.6 654.628571l40.228571 3.657143-40.228571-3.657143z" fill="#003F47" opacity=".1" p-id="4564"></path><path d="M281.6 654.628571l40.228571 3.657143-40.228571-3.657143z" fill="#004048" opacity=".1" p-id="4565"></path><path d="M281.6 654.628571l40.228571 3.657143-40.228571-3.657143z" fill="#004149" opacity=".1" p-id="4566"></path><path d="M281.6 654.628571l40.228571 3.657143-40.228571-3.657143z" fill="#00424A" opacity=".1" p-id="4567"></path><path d="M281.6 654.628571l40.228571 3.657143-40.228571-3.657143z" fill="#00434B" opacity=".1" p-id="4568"></path><path d="M281.6 654.628571h40.228571v3.657143l-40.228571-3.657143z" fill="#00444C" opacity=".1" p-id="4569"></path><path d="M281.6 650.971429l40.228571 3.657142H281.6z" fill="#00454D" opacity=".1" p-id="4570"></path><path d="M281.6 650.971429l40.228571 3.657142-40.228571-3.657142z" fill="#00454E" opacity=".1" p-id="4571"></path><path d="M281.6 650.971429l40.228571 3.657142-40.228571-3.657142z" fill="#00464F" opacity=".1" p-id="4572"></path><path d="M281.6 650.971429l40.228571 3.657142-40.228571-3.657142z" fill="#004750" opacity=".1" p-id="4573"></path><path d="M281.6 650.971429l40.228571 3.657142-40.228571-3.657142z" fill="#004851" opacity=".1" p-id="4574"></path><path d="M281.6 650.971429h40.228571v3.657142l-40.228571-3.657142z" fill="#004952" opacity=".1" p-id="4575"></path><path d="M281.6 650.971429h40.228571-40.228571z" fill="#004A53" opacity=".1" p-id="4576"></path><path d="M281.6 647.314286l40.228571 3.657143H281.6z" fill="#004B54" opacity=".1" p-id="4577"></path><path d="M281.6 647.314286l40.228571 3.657143-40.228571-3.657143z" fill="#004C55" opacity=".1" p-id="4578"></path><path d="M281.6 647.314286l40.228571 3.657143-40.228571-3.657143z" fill="#004D56" opacity=".1" p-id="4579"></path><path d="M281.6 647.314286l40.228571 3.657143-40.228571-3.657143z" fill="#004D57" opacity=".1" p-id="4580"></path><path d="M281.6 647.314286l40.228571 3.657143-40.228571-3.657143z" fill="#004E58" opacity=".1" p-id="4581"></path><path d="M281.6 647.314286h40.228571v3.657143l-40.228571-3.657143z" fill="#004F59" opacity=".1" p-id="4582"></path><path d="M281.6 647.314286h40.228571-40.228571z" fill="#00505A" opacity=".1" p-id="4583"></path><path d="M281.6 643.657143l40.228571 3.657143H281.6z" fill="#00515B" opacity=".1" p-id="4584"></path><path d="M281.6 643.657143l40.228571 3.657143-40.228571-3.657143z" fill="#00525C" opacity=".1" p-id="4585"></path><path d="M281.6 643.657143l40.228571 3.657143-40.228571-3.657143z" fill="#00535D" opacity=".1" p-id="4586"></path><path d="M281.6 643.657143l40.228571 3.657143-40.228571-3.657143z" fill="#00545E" opacity=".1" p-id="4587"></path><path d="M281.6 643.657143l40.228571 3.657143-40.228571-3.657143z" fill="#00555F" opacity=".1" p-id="4588"></path><path d="M281.6 643.657143h40.228571v3.657143l-40.228571-3.657143z" fill="#005560" opacity=".1" p-id="4589"></path><path d="M281.6 640l40.228571 3.657143H281.6z" fill="#005661" opacity=".1" p-id="4590"></path><path d="M281.6 640l40.228571 3.657143-40.228571-3.657143z" fill="#005762" opacity=".1" p-id="4591"></path><path d="M281.6 640l40.228571 3.657143-40.228571-3.657143z" fill="#005863" opacity=".1" p-id="4592"></path><path d="M281.6 640l40.228571 3.657143-40.228571-3.657143z" fill="#005964" opacity=".1" p-id="4593"></path><path d="M281.6 640l40.228571 3.657143-40.228571-3.657143z" fill="#005A65" opacity=".1" p-id="4594"></path><path d="M281.6 640l40.228571 3.657143-40.228571-3.657143z" fill="#005B66" opacity=".1" p-id="4595"></path><path d="M281.6 640h40.228571v3.657143l-40.228571-3.657143z" fill="#005C67" opacity=".1" p-id="4596"></path><path d="M281.6 636.342857l40.228571 3.657143H281.6z" fill="#005D68" opacity=".1" p-id="4597"></path><path d="M281.6 636.342857l40.228571 3.657143-40.228571-3.657143z" fill="#005D69" opacity=".1" p-id="4598"></path><path d="M281.6 636.342857l40.228571 3.657143-40.228571-3.657143z" fill="#005E6A" opacity=".1" p-id="4599"></path><path d="M281.6 636.342857l40.228571 3.657143-40.228571-3.657143z" fill="#005F6B" opacity=".1" p-id="4600"></path><path d="M281.6 636.342857l40.228571 3.657143-40.228571-3.657143z" fill="#00606C" opacity=".1" p-id="4601"></path><path d="M281.6 636.342857l40.228571 3.657143-40.228571-3.657143z" fill="#00616D" opacity=".1" p-id="4602"></path><path d="M281.6 636.342857h40.228571v3.657143l-40.228571-3.657143z" fill="#00626E" opacity=".1" p-id="4603"></path><path d="M281.6 632.685714l40.228571 3.657143H281.6z" fill="#00636F" opacity=".1" p-id="4604"></path><path d="M281.6 632.685714l40.228571 3.657143-40.228571-3.657143z" fill="#006470" opacity=".1" p-id="4605"></path><path d="M281.6 632.685714l40.228571 3.657143-40.228571-3.657143z" fill="#006571" opacity=".1" p-id="4606"></path><path d="M281.6 632.685714l40.228571 3.657143-40.228571-3.657143z" fill="#006572" opacity=".1" p-id="4607"></path><path d="M281.6 632.685714l40.228571 3.657143-40.228571-3.657143z" fill="#006673" opacity=".1" p-id="4608"></path><path d="M281.6 632.685714h40.228571v3.657143l-40.228571-3.657143z" fill="#006774" opacity=".1" p-id="4609"></path><path d="M281.6 632.685714h40.228571-40.228571z" fill="#006875" opacity=".1" p-id="4610"></path><path d="M281.6 629.028571l40.228571 3.657143H281.6z" fill="#006976" opacity=".1" p-id="4611"></path><path d="M281.6 629.028571l40.228571 3.657143-40.228571-3.657143z" fill="#006A77" opacity=".1" p-id="4612"></path><path d="M281.6 629.028571l40.228571 3.657143-40.228571-3.657143z" fill="#006B78" opacity=".1" p-id="4613"></path><path d="M281.6 629.028571l40.228571 3.657143-40.228571-3.657143z" fill="#006C79" opacity=".1" p-id="4614"></path><path d="M281.6 629.028571l40.228571 3.657143-40.228571-3.657143z" fill="#006D7A" opacity=".1" p-id="4615"></path><path d="M281.6 629.028571h40.228571v3.657143l-40.228571-3.657143z" fill="#006D7B" opacity=".1" p-id="4616"></path><path d="M281.6 629.028571h40.228571-40.228571z" fill="#006E7C" opacity=".1" p-id="4617"></path><path d="M281.6 625.371429l40.228571 3.657142H281.6z" fill="#006F7D" opacity=".1" p-id="4618"></path><path d="M281.6 625.371429l40.228571 3.657142-40.228571-3.657142z" fill="#00707E" opacity=".1" p-id="4619"></path><path d="M281.6 625.371429l40.228571 3.657142-40.228571-3.657142z" fill="#007180" opacity=".1" p-id="4620"></path><path d="M281.6 625.371429l40.228571 3.657142-40.228571-3.657142z" fill="#007281" opacity=".1" p-id="4621"></path><path d="M281.6 625.371429l40.228571 3.657142-40.228571-3.657142z" fill="#007382" opacity=".1" p-id="4622"></path><path d="M281.6 625.371429h40.228571v3.657142l-40.228571-3.657142z" fill="#007483" opacity=".1" p-id="4623"></path><path d="M281.6 621.714286l40.228571 3.657143H281.6z" fill="#007584" opacity=".1" p-id="4624"></path><path d="M281.6 621.714286l40.228571 3.657143-40.228571-3.657143z" fill="#007585" opacity=".1" p-id="4625"></path><path d="M281.6 621.714286l40.228571 3.657143-40.228571-3.657143z" fill="#007686" opacity=".1" p-id="4626"></path><path d="M281.6 621.714286l40.228571 3.657143-40.228571-3.657143z" fill="#007787" opacity=".1" p-id="4627"></path><path d="M281.6 621.714286l40.228571 3.657143-40.228571-3.657143z" fill="#007888" opacity=".1" p-id="4628"></path><path d="M281.6 621.714286l40.228571 3.657143-40.228571-3.657143z" fill="#007989" opacity=".1" p-id="4629"></path><path d="M281.6 621.714286h40.228571v3.657143L281.6 621.714286z" fill="#007A8A" opacity=".1" p-id="4630"></path><path d="M281.6 618.057143l40.228571 3.657143H281.6z" fill="#007B8B" opacity=".1" p-id="4631"></path><path d="M281.6 618.057143l40.228571 3.657143-40.228571-3.657143z" fill="#007C8C" opacity=".1" p-id="4632"></path><path d="M281.6 618.057143l40.228571 3.657143-40.228571-3.657143z" fill="#007D8D" opacity=".1" p-id="4633"></path><path d="M281.6 618.057143l40.228571 3.657143-40.228571-3.657143z" fill="#007D8E" opacity=".1" p-id="4634"></path><path d="M281.6 618.057143l40.228571 3.657143-40.228571-3.657143z" fill="#007E8F" opacity=".1" p-id="4635"></path><path d="M281.6 618.057143l40.228571 3.657143-40.228571-3.657143z" fill="#007F90" opacity=".1" p-id="4636"></path><path d="M281.6 618.057143h40.228571v3.657143l-40.228571-3.657143z" fill="#008091" opacity=".1" p-id="4637"></path><path d="M281.6 614.4l40.228571 3.657143H281.6z" fill="#008192" opacity=".1" p-id="4638"></path><path d="M281.6 614.4l40.228571 3.657143-40.228571-3.657143z" fill="#008293" opacity=".1" p-id="4639"></path><path d="M281.6 614.4l40.228571 3.657143-40.228571-3.657143z" fill="#008394" opacity=".1" p-id="4640"></path><path d="M281.6 614.4l40.228571 3.657143-40.228571-3.657143z" fill="#008495" opacity=".1" p-id="4641"></path><path d="M281.6 614.4l40.228571 3.657143-40.228571-3.657143z" fill="#008596" opacity=".1" p-id="4642"></path><path d="M281.6 614.4h40.228571v3.657143l-40.228571-3.657143z" fill="#008597" opacity=".1" p-id="4643"></path><path d="M281.6 614.4h40.228571-40.228571z" fill="#008698" opacity=".1" p-id="4644"></path><path d="M281.6 610.742857l40.228571 3.657143H281.6z" fill="#008799" opacity=".1" p-id="4645"></path><path d="M281.6 610.742857l40.228571 3.657143-40.228571-3.657143z" fill="#00889A" opacity=".1" p-id="4646"></path><path d="M281.6 610.742857l40.228571 3.657143-40.228571-3.657143z" fill="#00899B" opacity=".1" p-id="4647"></path><path d="M281.6 610.742857l40.228571 3.657143-40.228571-3.657143z" fill="#008A9C" opacity=".1" p-id="4648"></path><path d="M281.6 610.742857l40.228571 3.657143-40.228571-3.657143z" fill="#008B9D" opacity=".1" p-id="4649"></path><path d="M281.6 610.742857h40.228571v3.657143l-40.228571-3.657143z" fill="#008C9E" opacity=".1" p-id="4650"></path><path d="M281.6 610.742857h40.228571-40.228571z" fill="#008D9F" opacity=".1" p-id="4651"></path><path d="M281.6 607.085714l40.228571 3.657143H281.6z" fill="#008DA0" opacity=".1" p-id="4652"></path><path d="M281.6 607.085714l40.228571 3.657143-40.228571-3.657143z" fill="#008EA1" opacity=".1" p-id="4653"></path><path d="M281.6 607.085714l40.228571 3.657143-40.228571-3.657143z" fill="#008FA2" opacity=".1" p-id="4654"></path><path d="M281.6 607.085714l40.228571 3.657143-40.228571-3.657143z" fill="#0090A3" opacity=".1" p-id="4655"></path><path d="M281.6 607.085714l40.228571 3.657143-40.228571-3.657143z" fill="#0091A4" opacity=".1" p-id="4656"></path><path d="M281.6 607.085714h40.228571v3.657143l-40.228571-3.657143z" fill="#0092A5" opacity=".1" p-id="4657"></path><path d="M281.6 603.428571l40.228571 3.657143H281.6z" fill="#0093A6" opacity=".1" p-id="4658"></path><path d="M281.6 603.428571l40.228571 3.657143-40.228571-3.657143z" fill="#0094A7" opacity=".1" p-id="4659"></path><path d="M281.6 603.428571l40.228571 3.657143-40.228571-3.657143z" fill="#0095A8" opacity=".1" p-id="4660"></path><path d="M281.6 603.428571l40.228571 3.657143-40.228571-3.657143z" fill="#0095A9" opacity=".1" p-id="4661"></path><path d="M281.6 603.428571l40.228571 3.657143-40.228571-3.657143z" fill="#0096AA" opacity=".1" p-id="4662"></path><path d="M281.6 603.428571l40.228571 3.657143-40.228571-3.657143z" fill="#0097AB" opacity=".1" p-id="4663"></path><path d="M281.6 603.428571h40.228571v3.657143l-40.228571-3.657143z" fill="#0098AC" opacity=".1" p-id="4664"></path><path d="M281.6 599.771429l40.228571 3.657142H281.6z" fill="#0099AD" opacity=".1" p-id="4665"></path><path d="M281.6 599.771429l40.228571 3.657142-40.228571-3.657142z" fill="#009AAE" opacity=".1" p-id="4666"></path><path d="M281.6 599.771429l40.228571 3.657142-40.228571-3.657142z" fill="#009BAF" opacity=".1" p-id="4667"></path><path d="M281.6 599.771429l40.228571 3.657142-40.228571-3.657142z" fill="#009CB0" opacity=".1" p-id="4668"></path><path d="M281.6 599.771429l40.228571 3.657142-40.228571-3.657142z" fill="#009DB1" opacity=".1" p-id="4669"></path><path d="M281.6 599.771429l40.228571 3.657142-40.228571-3.657142z" fill="#009DB2" opacity=".1" p-id="4670"></path><path d="M281.6 599.771429h40.228571v3.657142l-40.228571-3.657142z" fill="#009EB3" opacity=".1" p-id="4671"></path><path d="M281.6 596.114286l40.228571 3.657143H281.6z" fill="#009FB4" opacity=".1" p-id="4672"></path><path d="M281.6 596.114286l40.228571 3.657143-40.228571-3.657143z" fill="#00A0B5" opacity=".1" p-id="4673"></path><path d="M281.6 596.114286l40.228571 3.657143-40.228571-3.657143z" fill="#00A1B6" opacity=".1" p-id="4674"></path><path d="M281.6 596.114286l40.228571 3.657143-40.228571-3.657143z" fill="#00A2B7" opacity=".1" p-id="4675"></path><path d="M281.6 596.114286l40.228571 3.657143-40.228571-3.657143z" fill="#00A3B8" opacity=".1" p-id="4676"></path><path d="M281.6 596.114286h40.228571v3.657143l-40.228571-3.657143z" fill="#00A4B9" opacity=".1" p-id="4677"></path><path d="M281.6 596.114286h40.228571-40.228571z" fill="#00A5BA" opacity=".1" p-id="4678"></path><path d="M281.6 592.457143l40.228571 3.657143H281.6z" fill="#00A5BB" opacity=".1" p-id="4679"></path><path d="M281.6 592.457143l40.228571 3.657143-40.228571-3.657143z" fill="#00A6BC" opacity=".1" p-id="4680"></path><path d="M281.6 592.457143l40.228571 3.657143-40.228571-3.657143z" fill="#00A7BD" opacity=".1" p-id="4681"></path><path d="M281.6 592.457143l40.228571 3.657143-40.228571-3.657143z" fill="#00A8BE" opacity=".1" p-id="4682"></path><path d="M281.6 592.457143l40.228571 3.657143-40.228571-3.657143z" fill="#00A9BF" opacity=".1" p-id="4683"></path><path d="M281.6 592.457143h40.228571v3.657143l-40.228571-3.657143z" fill="#00AAC0" opacity=".1" p-id="4684"></path><path d="M281.6 592.457143h40.228571-40.228571z" fill="#00ABC1" opacity=".1" p-id="4685"></path><path d="M281.6 588.8l40.228571 3.657143H281.6z" fill="#00ACC2" opacity=".1" p-id="4686"></path><path d="M281.6 588.8l40.228571 3.657143-40.228571-3.657143z" fill="#00ADC3" opacity=".1" p-id="4687"></path><path d="M281.6 588.8l40.228571 3.657143-40.228571-3.657143z" fill="#00AEC4" opacity=".1" p-id="4688"></path><path d="M281.6 588.8l40.228571 3.657143-40.228571-3.657143z" fill="#00AEC5" opacity=".1" p-id="4689"></path><path d="M281.6 588.8l40.228571 3.657143-40.228571-3.657143z" fill="#00AFC6" opacity=".1" p-id="4690"></path><path d="M281.6 588.8h40.228571v3.657143l-40.228571-3.657143z" fill="#00B0C7" opacity=".1" p-id="4691"></path><path d="M281.6 585.142857l40.228571 3.657143H281.6z" fill="#00B1C8" opacity=".1" p-id="4692"></path><path d="M281.6 585.142857l40.228571 3.657143-40.228571-3.657143z" fill="#00B2C9" opacity=".1" p-id="4693"></path><path d="M281.6 585.142857l40.228571 3.657143-40.228571-3.657143z" fill="#00B3CA" opacity=".1" p-id="4694"></path><path d="M281.6 585.142857l40.228571 3.657143-40.228571-3.657143z" fill="#00B4CB" opacity=".1" p-id="4695"></path><path d="M281.6 585.142857l40.228571 3.657143-40.228571-3.657143z" fill="#00B5CC" opacity=".1" p-id="4696"></path><path d="M281.6 585.142857l40.228571 3.657143-40.228571-3.657143z" fill="#00B6CD" opacity=".1" p-id="4697"></path><path d="M281.6 585.142857h40.228571v3.657143L281.6 585.142857z" fill="#00B6CE" opacity=".1" p-id="4698"></path><path d="M281.6 581.485714l40.228571 3.657143H281.6z" fill="#00B7CF" opacity=".1" p-id="4699"></path><path d="M281.6 581.485714l40.228571 3.657143-40.228571-3.657143z" fill="#00B8D0" opacity=".1" p-id="4700"></path><path d="M281.6 581.485714l40.228571 3.657143-40.228571-3.657143z" fill="#00B9D1" opacity=".1" p-id="4701"></path><path d="M281.6 581.485714l40.228571 3.657143-40.228571-3.657143z" fill="#00BAD2" opacity=".1" p-id="4702"></path><path d="M281.6 581.485714l40.228571 3.657143-40.228571-3.657143z" fill="#00BBD3" opacity=".1" p-id="4703"></path><path d="M281.6 581.485714l40.228571 3.657143-40.228571-3.657143z" fill="#00BCD4" opacity=".1" p-id="4704"></path><path d="M281.6 581.485714h40.228571v3.657143l-40.228571-3.657143z" fill="#00BDD5" opacity=".1" p-id="4705"></path><path d="M281.6 577.828571l40.228571 3.657143H281.6z" fill="#00BED6" opacity=".1" p-id="4706"></path><path d="M281.6 577.828571l40.228571 3.657143-40.228571-3.657143z" fill="#00BED7" opacity=".1" p-id="4707"></path><path d="M281.6 577.828571l40.228571 3.657143-40.228571-3.657143z" fill="#00BFD8" opacity=".1" p-id="4708"></path><path d="M281.6 577.828571l40.228571 3.657143-40.228571-3.657143z" fill="#00C0D9" opacity=".1" p-id="4709"></path><path d="M281.6 577.828571l40.228571 3.657143-40.228571-3.657143z" fill="#00C1DA" opacity=".1" p-id="4710"></path><path d="M281.6 577.828571h40.228571v3.657143l-40.228571-3.657143z" fill="#00C2DB" opacity=".1" p-id="4711"></path><path d="M281.6 577.828571h40.228571-40.228571z" fill="#00C3DC" opacity=".1" p-id="4712"></path><path d="M281.6 574.171429l40.228571 3.657142H281.6z" fill="#00C4DD" opacity=".1" p-id="4713"></path><path d="M281.6 574.171429l40.228571 3.657142-40.228571-3.657142z" fill="#00C5DE" opacity=".1" p-id="4714"></path><path d="M281.6 574.171429l40.228571 3.657142-40.228571-3.657142z" fill="#00C6DF" opacity=".1" p-id="4715"></path><path d="M281.6 574.171429l40.228571 3.657142-40.228571-3.657142z" fill="#00C6E0" opacity=".1" p-id="4716"></path><path d="M281.6 574.171429l40.228571 3.657142-40.228571-3.657142z" fill="#00C7E1" opacity=".1" p-id="4717"></path><path d="M281.6 574.171429h40.228571v3.657142l-40.228571-3.657142z" fill="#00C8E2" opacity=".1" p-id="4718"></path><path d="M281.6 574.171429h40.228571-40.228571z" fill="#00C9E3" opacity=".1" p-id="4719"></path><path d="M281.6 570.514286l40.228571 3.657143H281.6z" fill="#00CAE4" opacity=".1" p-id="4720"></path><path d="M281.6 570.514286l40.228571 3.657143-40.228571-3.657143z" fill="#00CBE5" opacity=".1" p-id="4721"></path><path d="M281.6 570.514286l40.228571 3.657143-40.228571-3.657143z" fill="#00CCE6" opacity=".1" p-id="4722"></path><path d="M281.6 570.514286l40.228571 3.657143-40.228571-3.657143z" fill="#00CDE7" opacity=".1" p-id="4723"></path><path d="M281.6 570.514286l40.228571 3.657143-40.228571-3.657143z" fill="#00CEE8" opacity=".1" p-id="4724"></path><path d="M281.6 570.514286h40.228571v3.657143l-40.228571-3.657143z" fill="#00CEE9" opacity=".1" p-id="4725"></path><path d="M281.6 566.857143l40.228571 3.657143H281.6z" fill="#00CFEA" opacity=".1" p-id="4726"></path><path d="M281.6 566.857143l40.228571 3.657143-40.228571-3.657143z" fill="#00D0EB" opacity=".1" p-id="4727"></path><path d="M281.6 566.857143l40.228571 3.657143-40.228571-3.657143z" fill="#00D1EC" opacity=".1" p-id="4728"></path><path d="M281.6 566.857143l40.228571 3.657143-40.228571-3.657143z" fill="#00D2ED" opacity=".1" p-id="4729"></path><path d="M281.6 566.857143l40.228571 3.657143-40.228571-3.657143z" fill="#00D3EE" opacity=".1" p-id="4730"></path><path d="M281.6 566.857143l40.228571 3.657143-40.228571-3.657143z" fill="#00D4EF" opacity=".1" p-id="4731"></path><path d="M281.6 566.857143h40.228571v3.657143l-40.228571-3.657143z" fill="#00D5F0" opacity=".1" p-id="4732"></path><path d="M281.6 563.2l40.228571 3.657143H281.6z" fill="#00D6F1" opacity=".1" p-id="4733"></path><path d="M281.6 563.2l40.228571 3.657143-40.228571-3.657143z" fill="#00D6F2" opacity=".1" p-id="4734"></path><path d="M281.6 563.2l40.228571 3.657143-40.228571-3.657143z" fill="#00D7F3" opacity=".1" p-id="4735"></path><path d="M281.6 563.2l40.228571 3.657143-40.228571-3.657143z" fill="#00D8F4" opacity=".1" p-id="4736"></path><path d="M281.6 563.2l40.228571 3.657143-40.228571-3.657143z" fill="#00D9F5" opacity=".1" p-id="4737"></path><path d="M281.6 563.2l40.228571 3.657143-40.228571-3.657143z" fill="#00DAF6" opacity=".1" p-id="4738"></path><path d="M281.6 563.2h40.228571v3.657143l-40.228571-3.657143z" fill="#00DBF7" opacity=".1" p-id="4739"></path><path d="M281.6 559.542857l40.228571 3.657143H281.6z" fill="#00DCF8" opacity=".1" p-id="4740"></path><path d="M281.6 559.542857l40.228571 3.657143-40.228571-3.657143z" fill="#00DDF9" opacity=".1" p-id="4741"></path><path d="M281.6 559.542857l40.228571 3.657143-40.228571-3.657143z" fill="#00DEFA" opacity=".1" p-id="4742"></path><path d="M281.6 559.542857l40.228571 3.657143-40.228571-3.657143z" fill="#00DEFB" opacity=".1" p-id="4743"></path><path d="M281.6 559.542857l40.228571 3.657143-40.228571-3.657143z" fill="#00DFFC" opacity=".1" p-id="4744"></path><path d="M281.6 559.542857h40.228571v3.657143l-40.228571-3.657143z" fill="#00E0FD" opacity=".1" p-id="4745"></path><path d="M281.6 559.542857h40.228571-40.228571z" fill="#00E1FE" opacity=".1" p-id="4746"></path><path d="M281.6 555.885714l40.228571 3.657143H281.6z" fill="#00E2FF" opacity=".1" p-id="4747"></path><path d="M321.828571 559.542857l-40.228571-3.657143h40.228571z" fill="#00E2FF" opacity=".1" p-id="4748"></path><path d="M95.085714 716.8l197.485715 25.6H95.085714zM95.085714 709.485714l197.485715 25.6v7.314286l-197.485715-25.6z" fill="#BD9CE9" p-id="4749"></path><path d="M95.085714 702.171429l197.485715 25.6v7.314285l-197.485715-25.6z" fill="#BC9BE9" p-id="4750"></path><path d="M95.085714 694.857143l197.485715 25.6v7.314286l-197.485715-25.6z" fill="#BB9BE9" p-id="4751"></path><path d="M95.085714 687.542857l197.485715 25.6v7.314286L95.085714 694.857143z" fill="#BA9AE9" p-id="4752"></path><path d="M95.085714 680.228571l197.485715 25.6v7.314286l-197.485715-25.6z" fill="#B99AEA" p-id="4753"></path><path d="M95.085714 672.914286L292.571429 694.857143v10.971428l-197.485715-25.6z" fill="#B899EA" p-id="4754"></path><path d="M95.085714 665.6l197.485715 21.942857v7.314286l-197.485715-21.942857z" fill="#B799EA" p-id="4755"></path><path d="M95.085714 658.285714l197.485715 21.942857v7.314286l-197.485715-21.942857z" fill="#B698EA" p-id="4756"></path><path d="M95.085714 647.314286l197.485715 25.6v7.314285L95.085714 658.285714z" fill="#B598EA" p-id="4757"></path><path d="M95.085714 640l197.485715 25.6v7.314286l-197.485715-25.6z" fill="#B497EA" p-id="4758"></path><path d="M95.085714 632.685714L292.571429 658.285714v7.314286l-197.485715-25.6z" fill="#B397EB" p-id="4759"></path><path d="M95.085714 625.371429l197.485715 25.6v7.314285l-197.485715-25.6z" fill="#B296EB" p-id="4760"></path><path d="M95.085714 618.057143l197.485715 25.6v7.314286l-197.485715-25.6z" fill="#B195EB" p-id="4761"></path><path d="M95.085714 610.742857l197.485715 25.6v7.314286l-197.485715-25.6z" fill="#B095EB" p-id="4762"></path><path d="M95.085714 603.428571l197.485715 25.6v7.314286l-197.485715-25.6z" fill="#AF94EB" p-id="4763"></path><path d="M95.085714 596.114286L292.571429 621.714286v7.314285l-197.485715-25.6z" fill="#AE94EB" p-id="4764"></path><path d="M95.085714 588.8l197.485715 21.942857v10.971429l-197.485715-25.6z" fill="#AC93EC" p-id="4765"></path><path d="M95.085714 581.485714l197.485715 21.942857v7.314286l-197.485715-21.942857z" fill="#AB93EC" p-id="4766"></path><path d="M95.085714 574.171429l197.485715 21.942857v7.314285l-197.485715-21.942857z" fill="#AA92EC" p-id="4767"></path><path d="M95.085714 563.2l197.485715 25.6v7.314286l-197.485715-21.942857z" fill="#A992EC" p-id="4768"></path><path d="M95.085714 555.885714l197.485715 25.6v7.314286l-197.485715-25.6z" fill="#A891EC" p-id="4769"></path><path d="M95.085714 548.571429l197.485715 25.6v7.314285l-197.485715-25.6z" fill="#A790EC" p-id="4770"></path><path d="M95.085714 541.257143l197.485715 25.6v7.314286L95.085714 548.571429z" fill="#A690ED" p-id="4771"></path><path d="M95.085714 533.942857l197.485715 25.6v7.314286l-197.485715-25.6z" fill="#A58FED" p-id="4772"></path><path d="M95.085714 526.628571l197.485715 25.6v7.314286l-197.485715-25.6z" fill="#A48FED" p-id="4773"></path><path d="M95.085714 519.314286l197.485715 25.6v7.314285l-197.485715-25.6z" fill="#A38EED" p-id="4774"></path><path d="M95.085714 512l197.485715 21.942857v10.971429l-197.485715-25.6z" fill="#A28EED" p-id="4775"></path><path d="M95.085714 504.685714l197.485715 21.942857v7.314286L95.085714 512z" fill="#A18DED" p-id="4776"></path><path d="M95.085714 497.371429l197.485715 21.942857v7.314285l-197.485715-21.942857z" fill="#A08DEE" p-id="4777"></path><path d="M98.742857 490.057143L292.571429 512v7.314286l-197.485715-21.942857v-7.314286z" fill="#9F8CEE" p-id="4778"></path><path d="M160.914286 490.057143l131.657143 14.628571v7.314286l-193.828572-21.942857z" fill="#9E8CEE" p-id="4779"></path><path d="M223.085714 490.057143l69.485715 7.314286v7.314285l-131.657143-14.628571z" fill="#9D8BEE" p-id="4780"></path><path d="M292.571429 497.371429l-69.485715-7.314286H292.571429z" fill="#9D8BEE" p-id="4781"></path><path d="M742.4 358.4h3.657143v69.485714h-3.657143z" opacity=".72" p-id="4782"></path><path d="M288.914286 354.742857H292.571429v73.142857h-3.657143z" opacity=".72" p-id="4783"></path><path d="M146.285714 592.457143h58.514286v3.657143H146.285714z" fill="#CAC0F6" p-id="4784"></path><path d="M146.285714 588.8h58.514286v3.657143H146.285714z" fill="#CAC0F6" p-id="4785"></path><path d="M146.285714 588.8h58.514286v3.657143H146.285714z" fill="#CBC1F6" p-id="4786"></path><path d="M146.285714 585.142857h58.514286v3.657143H146.285714z" fill="#CCC2F6" p-id="4787"></path><path d="M146.285714 581.485714h58.514286v3.657143H146.285714z" fill="#CDC3F6" p-id="4788"></path><path d="M146.285714 581.485714h58.514286v3.657143H146.285714z" fill="#CEC4F6" p-id="4789"></path><path d="M146.285714 577.828571h58.514286v3.657143H146.285714z" fill="#CFC5F6" p-id="4790"></path><path d="M146.285714 577.828571h58.514286v3.657143H146.285714z" fill="#D0C6F6" p-id="4791"></path><path d="M146.285714 574.171429h58.514286v3.657142H146.285714z" fill="#D1C7F6" p-id="4792"></path><path d="M146.285714 570.514286h58.514286v3.657143H146.285714z" fill="#D2C8F6" p-id="4793"></path><path d="M146.285714 570.514286h58.514286v3.657143H146.285714z" fill="#D3C9F6" p-id="4794"></path><path d="M146.285714 566.857143h58.514286v3.657143H146.285714z" fill="#D4CAF6" p-id="4795"></path><path d="M146.285714 563.2h58.514286v3.657143H146.285714z" fill="#D5CBF6" p-id="4796"></path><path d="M146.285714 563.2h58.514286v3.657143H146.285714z" fill="#D6CCF6" p-id="4797"></path><path d="M146.285714 559.542857h58.514286v3.657143H146.285714z" fill="#D7CDF6" p-id="4798"></path><path d="M146.285714 555.885714h58.514286v3.657143H146.285714z" fill="#D9CEF6" p-id="4799"></path><path d="M146.285714 555.885714h58.514286v3.657143H146.285714z" fill="#DACEF6" p-id="4800"></path><path d="M146.285714 552.228571h58.514286v3.657143H146.285714z" fill="#DBCFF6" p-id="4801"></path><path d="M146.285714 552.228571h58.514286v3.657143H146.285714z" fill="#DCD0F6" p-id="4802"></path><path d="M146.285714 548.571429h58.514286v3.657142H146.285714z" fill="#DDD1F6" p-id="4803"></path><path d="M146.285714 544.914286h58.514286v3.657143H146.285714z" fill="#DED2F6" p-id="4804"></path><path d="M146.285714 544.914286h58.514286v3.657143H146.285714z" fill="#DFD3F6" p-id="4805"></path><path d="M146.285714 541.257143h58.514286v3.657143H146.285714z" fill="#E0D4F6" p-id="4806"></path><path d="M146.285714 537.6h58.514286v3.657143H146.285714z" fill="#E1D5F6" p-id="4807"></path><path d="M146.285714 537.6h58.514286v3.657143H146.285714z" fill="#E2D6F6" p-id="4808"></path><path d="M146.285714 533.942857h58.514286v3.657143H146.285714z" fill="#E3D7F6" p-id="4809"></path><path d="M146.285714 530.285714h58.514286v3.657143H146.285714z" fill="#E4D8F6" p-id="4810"></path><path d="M146.285714 530.285714h58.514286v3.657143H146.285714z" fill="#E5D9F6" p-id="4811"></path><path d="M146.285714 526.628571h58.514286v3.657143H146.285714z" fill="#E6DAF6" p-id="4812"></path><path d="M146.285714 526.628571h58.514286v3.657143H146.285714z" fill="#E7DBF6" p-id="4813"></path><path d="M241.371429 738.742857l76.8 18.285714H241.371429z" fill="#DC1A8E" p-id="4814"></path><path d="M241.371429 735.085714l87.771428 21.942857h-10.971428l-76.8-18.285714z" fill="#DC1A8E" p-id="4815"></path><path d="M241.371429 735.085714l98.742857 21.942857H329.142857l-87.771428-21.942857z" fill="#DD1A8E" p-id="4816"></path><path d="M241.371429 731.428571l109.714285 25.6h-10.971428l-98.742857-21.942857z" fill="#DE198D" p-id="4817"></path><path d="M241.371429 727.771429l117.028571 29.257142h-7.314286l-109.714285-25.6z" fill="#DF198D" p-id="4818"></path><path d="M241.371429 727.771429l128 29.257142h-10.971429l-117.028571-29.257142z" fill="#E0198C" p-id="4819"></path><path d="M241.371429 724.114286l138.971428 32.914285h-10.971428l-128-29.257142z" fill="#E1198C" p-id="4820"></path><path d="M241.371429 720.457143l149.942857 36.571428h-10.971429l-138.971428-32.914285z" fill="#E2188B" p-id="4821"></path><path d="M241.371429 720.457143l153.6 36.571428h-3.657143l-149.942857-36.571428z" fill="#E3188B" p-id="4822"></path><path d="M241.371429 716.8l153.6 36.571429v3.657142l-153.6-36.571428z" fill="#E4188A" p-id="4823"></path><path d="M241.371429 713.142857l153.6 36.571429v3.657143l-153.6-36.571429z" fill="#E5178A" p-id="4824"></path><path d="M241.371429 713.142857l153.6 36.571429-153.6-36.571429z" fill="#E61789" p-id="4825"></path><path d="M241.371429 709.485714l153.6 36.571429v3.657143l-153.6-36.571429z" fill="#E71789" p-id="4826"></path><path d="M241.371429 705.828571l153.6 36.571429v3.657143l-153.6-36.571429z" fill="#E81788" p-id="4827"></path><path d="M241.371429 705.828571l153.6 36.571429-153.6-36.571429z" fill="#E91688" p-id="4828"></path><path d="M241.371429 702.171429l153.6 36.571428v3.657143l-153.6-36.571429z" fill="#EA1687" p-id="4829"></path><path d="M241.371429 698.514286l153.6 36.571428v3.657143l-153.6-36.571428z" fill="#EB1687" p-id="4830"></path><path d="M241.371429 694.857143l153.6 40.228571-153.6-36.571428z" fill="#ED1686" p-id="4831"></path><path d="M241.371429 694.857143l153.6 36.571428v3.657143L241.371429 694.857143z" fill="#EE1586" p-id="4832"></path><path d="M241.371429 691.2l153.6 36.571429v3.657142l-153.6-36.571428z" fill="#EF1585" p-id="4833"></path><path d="M241.371429 687.542857l153.6 40.228572-153.6-36.571429z" fill="#F01585" p-id="4834"></path><path d="M241.371429 687.542857l153.6 36.571429v3.657143l-153.6-40.228572z" fill="#F11484" p-id="4835"></path><path d="M241.371429 683.885714l153.6 36.571429v3.657143l-153.6-36.571429z" fill="#F21484" p-id="4836"></path><path d="M241.371429 680.228571l153.6 36.571429v3.657143l-153.6-36.571429z" fill="#F31483" p-id="4837"></path><path d="M241.371429 680.228571l153.6 36.571429-153.6-36.571429z" fill="#F41483" p-id="4838"></path><path d="M241.371429 676.571429l153.6 36.571428v3.657143l-153.6-36.571429z" fill="#F51382" p-id="4839"></path><path d="M241.371429 672.914286l153.6 36.571428v3.657143l-153.6-36.571428z" fill="#F61382" p-id="4840"></path><path d="M241.371429 672.914286l153.6 36.571428-153.6-36.571428z" fill="#F71381" p-id="4841"></path><path d="M241.371429 669.257143l153.6 36.571428v3.657143l-153.6-36.571428z" fill="#F81281" p-id="4842"></path><path d="M241.371429 665.6l153.6 36.571429v3.657142l-153.6-36.571428z" fill="#F91280" p-id="4843"></path><path d="M248.685714 665.6l146.285715 36.571429-153.6-36.571429z" fill="#FA1280" p-id="4844"></path><path d="M259.657143 665.6l135.314286 32.914286v3.657143l-146.285715-36.571429z" fill="#FB127F" p-id="4845"></path><path d="M270.628571 665.6l124.342858 29.257143v3.657143l-135.314286-32.914286z" fill="#FC117F" p-id="4846"></path><path d="M277.942857 665.6l117.028572 29.257143-124.342858-29.257143zM394.971429 694.857143l-117.028572-29.257143h117.028572z" fill="#FD117E" p-id="4847"></path></svg>